<svg xmlns="http://www.w3.org/2000/svg" aria-hidden="true" style="position:absolute;width:0;height:0;overflow:hidden">
  
  <symbol id="icon-close" viewBox="0 0 40 40">
    <path d="M30 10L10 30" stroke="currentColor" stroke-width="4" stroke-linecap="round" stroke-linejoin="round"/>
    <path d="M10 10L30 30" stroke="currentColor" stroke-width="4" stroke-linecap="round" stroke-linejoin="round"/>
  </symbol>

  <symbol id="icon-menu" viewBox="0 0 25 19">
    <path d="M1.5 1.5H22.8333M1.5 9.5H12.1667M1.5 17.5H22.8333" stroke="currentColor" stroke-width="3" stroke-linecap="round" stroke-linejoin="round"/>
  </symbol>

  <symbol id="icon-head-blok" viewBox="0 0 20 20">
    <path d="M18.1764 0.1422H15.6704C14.8972 0.1422 14.2704 0.756479 14.2704 1.51428V3.97008C14.2704 4.72788 14.8972 5.3422 15.6704 5.3422H18.1764C18.9496 5.3422 19.5765 4.72788 19.5765 3.97008V1.51428C19.5765 0.756479 18.9496 0.1422 18.1764 0.1422Z" fill="currentColor"/>
    <path d="M4.20649 14.346H1.5078C0.675061 14.346 0 14.9604 0 15.7182V18.174C0 18.9318 0.675061 19.546 1.5078 19.546H4.20649C5.03922 19.546 5.71429 18.9318 5.71429 18.174V15.7182C5.71429 14.9604 5.03922 14.346 4.20649 14.346Z" fill="currentColor"/>
    <path d="M3.906 7.18468H1.40008C0.626857 7.18468 0 7.79896 0 8.55676V11.0126C0 11.7704 0.626999 12.3847 1.40022 12.3847H3.906C4.67927 12.3847 5.30612 11.7704 5.30612 11.0126V8.55676C5.30612 7.79896 4.67927 7.18468 3.906 7.18468Z" fill="currentColor"/>
    <path d="M11.1037 14.3074H8.59777C7.82455 14.3074 7.19769 14.9217 7.19769 15.6795L7.19755 18.1353C7.19755 18.8931 7.82469 19.5074 8.59792 19.5074H11.1037C11.877 19.5074 12.5038 18.8931 12.5038 18.1353V15.6795C12.5038 14.9217 11.877 14.3074 11.1037 14.3074Z" fill="currentColor"/>
    <path d="M3.906 -3.49395e-05H1.40008C0.626857 -3.49395e-05 0 0.614244 0 1.37204V3.82784C0 4.58564 0.626999 5.19996 1.40022 5.19996H3.906C4.67927 5.19996 5.30612 4.58564 5.30612 3.82784V1.37204C5.30612 0.614244 4.67927 -3.49395e-05 3.906 -3.49395e-05Z" fill="currentColor"/>
    <path d="M11.2974 7.25696H8.79151C8.01828 7.25696 7.39143 7.87124 7.39143 8.62904V11.0848C7.39143 11.8426 8.01843 12.457 8.79165 12.457H11.2974C12.0707 12.457 12.6975 11.8426 12.6975 11.0848V8.62904C12.6975 7.87124 12.0707 7.25696 11.2974 7.25696Z" fill="currentColor"/>
    <path d="M18.3333 14.3074H15.8274C15.0542 14.3074 14.4273 14.9217 14.4273 15.6795V18.1353C14.4273 18.8931 15.0543 19.5074 15.8276 19.5074H18.3333C19.1066 19.5074 19.7335 18.8931 19.7335 18.1353V15.6795C19.7335 14.9217 19.1066 14.3074 18.3333 14.3074Z" fill="currentColor"/>
    <path d="M10.9941 0.0858619H8.4882C7.71498 0.0858619 7.08812 0.700141 7.08812 1.45794V3.91374C7.08812 4.67154 7.71512 5.28586 8.48834 5.28586H10.9941C11.7674 5.28586 12.3942 4.67108 12.3942 3.91328V1.45794C12.3942 0.700141 11.7674 0.0858619 10.9941 0.0858619Z" fill="currentColor"/>
    <path d="M18.1523 7.39968H15.6464C14.8732 7.39968 14.2463 8.01396 14.2463 8.77176V11.2276C14.2463 11.9854 14.8733 12.5997 15.6466 12.5997H18.1523C18.9256 12.5997 19.5525 11.9854 19.5525 11.2276V8.77176C19.5525 8.01396 18.9256 7.39968 18.1523 7.39968Z" fill="currentColor"/>
  </symbol>

</svg>