<svg xmlns="http://www.w3.org/2000/svg" style="display: none;">
  
  <symbol id="icon-close" viewBox="0 0 40 40">
    <path d="M30 10L10 30" stroke="currentColor" stroke-width="4" stroke-linecap="round" stroke-linejoin="round"/>
    <path d="M10 10L30 30" stroke="currentColor" stroke-width="4" stroke-linecap="round" stroke-linejoin="round"/>
  </symbol>

  <symbol id="icon-hamburger" viewBox="0 0 25 19">
    <path d="M1.5 1.5H22.8333M1.5 9.5H12.1667M1.5 17.5H22.8333" stroke="currentColor" stroke-width="3" stroke-linecap="round" stroke-linejoin="round"/>
  </symbol>

    <symbol id="icon-panel" viewBox="0 0 20 20">
  <path d="M18.1764 0.142444H15.6704C14.8972 0.142444 14.2704 0.756723 14.2704 1.51452V3.97032C14.2704 4.72812 14.8972 5.34244 15.6704 5.34244H18.1764C18.9496 5.34244 19.5765 4.72812 19.5765 3.97032V1.51452C19.5765 0.756723 18.9496 0.142444 18.1764 0.142444Z" fill="currentColor"/>
  <path d="M4.20649 14.3463H1.5078C0.675061 14.3463 0 14.9606 0 15.7184V18.1742C0 18.932 0.675061 19.5463 1.5078 19.5463H4.20649C5.03922 19.5463 5.71429 18.932 5.71429 18.1742V15.7184C5.71429 14.9606 5.03922 14.3463 4.20649 14.3463Z" fill="currentColor"/>
  <path d="M3.906 7.18493H1.40008C0.626857 7.18493 0 7.79921 0 8.55701V11.0128C0 11.7706 0.626999 12.3849 1.40022 12.3849H3.906C4.67927 12.3849 5.30612 11.7706 5.30612 11.0128V8.55701C5.30612 7.79921 4.67927 7.18493 3.906 7.18493Z" fill="currentColor"/>
  <path d="M11.1037 14.3076H8.59777C7.82455 14.3076 7.19769 14.9219 7.19769 15.6797L7.19755 18.1355C7.19755 18.8933 7.82469 19.5076 8.59792 19.5076H11.1037C11.877 19.5076 12.5038 18.8933 12.5038 18.1355V15.6797C12.5038 14.9219 11.877 14.3076 11.1037 14.3076Z" fill="currentColor"/>
  <path d="M3.906 0.000209201H1.40008C0.626857 0.000209201 0 0.614488 0 1.37229V3.82809C0 4.58589 0.626999 5.20021 1.40022 5.20021H3.906C4.67927 5.20021 5.30612 4.58589 5.30612 3.82809V1.37229C5.30612 0.614488 4.67927 0.000209201 3.906 0.000209201Z" fill="currentColor"/>
  <path d="M11.2974 7.25721H8.79151C8.01828 7.25721 7.39143 7.87149 7.39143 8.62929V11.0851C7.39143 11.8429 8.01843 12.4572 8.79165 12.4572H11.2974C12.0707 12.4572 12.6975 11.8429 12.6975 11.0851V8.62929C12.6975 7.87149 12.0707 7.25721 11.2974 7.25721Z" fill="currentColor"/>
  <path d="M18.3333 14.3076H15.8274C15.0542 14.3076 14.4273 14.9219 14.4273 15.6797V18.1355C14.4273 18.8933 15.0543 19.5077 15.8276 19.5077H18.3333C19.1066 19.5077 19.7335 18.8933 19.7335 18.1355V15.6797C19.7335 14.9219 19.1066 14.3076 18.3333 14.3076Z" fill="currentColor"/>
  <path d="M10.9941 0.086106H8.4882C7.71498 0.086106 7.08812 0.700385 7.08812 1.45819V3.91398C7.08812 4.67178 7.71512 5.2861 8.48834 5.2861H10.9941C11.7674 5.2861 12.3942 4.67133 12.3942 3.91353V1.45819C12.3942 0.700385 11.7674 0.086106 10.9941 0.086106Z" fill="currentColor"/>
  <path d="M18.1523 7.39993H15.6464C14.8732 7.39993 14.2463 8.01421 14.2463 8.77201V11.2278C14.2463 11.9856 14.8733 12.5999 15.6466 12.5999H18.1523C18.9256 12.5999 19.5525 11.9856 19.5525 11.2278V8.77201C19.5525 8.01421 18.9256 7.39993 18.1523 7.39993Z" fill="currentColor"/>
</symbol>


  <symbol id="icon-green-harvest-mob" viewBox="0 0 146 12">
  <path d="M6.30096 12C2.5132 12 0 9.648 0 5.984C0 2.4 2.4773 0 6.2112 0C9.35271 0 11.5607 1.648 11.8839 4.128H9.2809C9.02958 2.704 7.82683 1.904 6.2112 1.904C3.94932 1.904 2.60296 3.536 2.60296 5.984C2.60296 8.672 4.11088 10.096 6.30096 10.096C8.20381 10.096 9.42451 9.136 9.55017 7.696V7.536H6.04964V5.744H11.9736V7.216C11.8659 10.08 9.60403 12 6.30096 12Z" fill="currentColor"/>
  <path d="M13.543 11.84V0.16H19.8439C23.0572 0.16 24.3318 1.552 24.3318 3.568C24.3318 5.376 22.8957 6.24 21.2262 6.448V6.496C22.3033 6.736 22.788 7.264 23.2368 8.304C23.8112 9.616 23.901 11.184 24.637 11.744V11.84H21.7647C21.1544 11.296 21.0108 9.584 20.6876 8.544C20.3645 7.472 19.6644 7.344 18.354 7.344H16.0562V11.84H13.543ZM16.0562 5.488H19.5747C21.0467 5.488 21.7288 4.72 21.7288 3.728C21.7288 2.64 20.8851 2.016 19.5747 2.016H16.0562V5.488Z" fill="currentColor"/>
  <path d="M26.001 11.84V0.16H34.9588V2.016H28.5142V4.8H34.3305V6.656H28.5142V9.936H35.0485V11.84H26.001Z" fill="currentColor"/>
  <path d="M36.7936 11.84V0.16H45.7514V2.016H39.3068V4.8H45.1231V6.656H39.3068V9.936H45.8411V11.84H36.7936Z" fill="currentColor"/>
  <path d="M47.5862 11.84V0.16H50.638L54.9822 6.608C56.3106 8.56 56.4722 9.2 56.4722 9.2H56.526L56.4901 0.16H59.0033V11.84H55.9336L51.4278 5.2C50.4046 3.696 50.1353 2.784 50.1353 2.784H50.0994V11.84H47.5862Z" fill="currentColor"/>
  <path d="M60.894 11.84V9.472H63.5149V11.84H60.894Z" fill="currentColor"/>
  <path d="M65.4023 11.84V0.16H67.9155V4.832H73.9293V0.16H76.4425V11.84H73.9293V6.688H67.9155V11.84H65.4023Z" fill="currentColor"/>
  <path d="M77.5166 11.84L82.543 0.16H85.2716L90.3699 11.84H87.6771L86.618 9.152H81.1787L80.1196 11.84H77.5166ZM81.8968 7.296H85.8999L84.7331 4.416C83.9253 2.288 83.9073 1.904 83.9073 1.904H83.8714C83.8714 1.904 83.8714 2.288 83.0636 4.416L81.8968 7.296Z" fill="currentColor"/>
  <path d="M91.4403 11.84V0.16H97.7413C100.955 0.16 102.229 1.552 102.229 3.568C102.229 5.376 100.793 6.24 99.1236 6.448V6.496C100.201 6.736 100.685 7.264 101.134 8.304C101.709 9.616 101.798 11.184 102.534 11.744V11.84H99.6621C99.0518 11.296 98.9081 9.584 98.585 8.544C98.2619 7.472 97.5618 7.344 96.2513 7.344H93.9536V11.84H91.4403ZM93.9536 5.488H97.472C98.9441 5.488 99.6262 4.72 99.6262 3.728C99.6262 2.64 98.7825 2.016 97.472 2.016H93.9536V5.488Z" fill="currentColor"/>
  <path d="M106.563 11.84L101.752 0.16H104.445C104.445 0.16 107.048 6.704 107.317 7.504C107.748 8.784 107.945 9.44 107.945 9.44H107.981C107.963 9.44 108.161 8.784 108.609 7.504C108.897 6.704 111.392 0.16 111.392 0.16H113.995L109.363 11.84H106.563Z" fill="currentColor"/>
  <path d="M115.024 11.84V0.16H123.982V2.016H117.537V4.8H123.354V6.656H117.537V9.936H124.072V11.84H115.024Z" fill="currentColor"/>
  <path d="M130.311 12C126.972 12 124.961 10.384 124.961 7.984H127.834C127.798 9.344 128.803 10.096 130.311 10.096C131.909 10.096 132.662 9.536 132.662 8.704C132.662 7.872 132.016 7.52 129.718 6.96C127.618 6.448 125.32 5.84 125.32 3.44C125.32 1.536 127.187 0 130.131 0C133.165 0 135.104 1.52 135.104 3.664H132.321C132.303 2.528 131.442 1.904 130.131 1.904C128.857 1.904 128.013 2.48 128.013 3.248C128.013 4.16 128.713 4.448 130.544 4.912C133.255 5.584 135.445 5.856 135.445 8.464C135.445 10.56 133.309 12 130.311 12Z" fill="currentColor"/>
  <path d="M139.537 11.84V2.064H135.57V0.16H146V2.064H142.051V11.84H139.537Z" fill="currentColor"/>
</symbol>

 <symbol id="icon-green-harvest-desk" viewBox="0 0 187 17" shape-rendering="geometricPrecision">
  <path d="M8.05602 16.6667C3.21323 16.6667 0 13.4 0 8.31111C0 3.33333 3.16733 0 7.94126 0C11.9578 0 14.7808 2.28889 15.194 5.73333H11.8661C11.5447 3.75556 10.0069 2.64444 7.94126 2.64444C5.04938 2.64444 3.32799 4.91111 3.32799 8.31111C3.32799 12.0444 5.25587 14.0222 8.05602 14.0222C10.4891 14.0222 12.0506 12.6889 12.2113 10.6889V10.4667H7.7346V7.97778H15.3088V10.0222C15.1711 14 12.2794 16.6667 8.05602 16.6667Z" fill="currentColor"/>
  <path d="M17.3113 16.4444V0.222222H25.3674C29.4754 0.222222 31.1049 2.15556 31.1049 4.95556C31.1049 7.46667 29.269 8.66667 27.1341 8.95556V9.02222C28.5113 9.35556 29.1311 10.0889 29.7049 11.5333C30.4393 13.3556 30.5541 15.5333 31.4952 16.3111V16.4444H27.8229C27.0427 15.6889 26.8591 13.3111 26.4459 11.8667C26.0326 10.3778 25.1375 10.2 23.4616 10.2H20.5251V16.4444H17.3113ZM20.5251 7.62222H25.023C26.9048 7.62222 27.7769 6.55556 27.7769 5.17778C27.7769 3.66667 26.6982 2.8 25.023 2.8H20.5251V7.62222Z" fill="currentColor"/>
  <path d="M33.238 16.4444V0.222222H44.6896V2.8H36.4513V6.66667H43.8863V9.24444H36.4513V13.8H44.8044V16.4444H33.238Z" fill="currentColor"/>
  <path d="M47.0315 16.4444V0.222222H58.4831V2.8H50.2448V6.66667H57.6798V9.24444H50.2448V13.8H58.5979V16.4444H47.0315Z" fill="currentColor"/>
  <path d="M60.8252 16.4444V0.222222H64.7268L70.2809 9.17778C71.9791 11.8889 72.1856 12.7778 72.1856 12.7778H72.2545L72.2086 0.222222H75.4214V16.4444H71.4975L65.7369 7.22222C64.4287 5.13333 64.0844 3.86667 64.0844 3.86667H64.0385V16.4444H60.8252Z" fill="currentColor"/>
  <path d="M77.8386 16.4444V13.1556H81.1893V16.4444H77.8386Z" fill="currentColor"/>
  <path d="M83.6001 16.4444V0.222222H86.8139V6.71111H94.5034V0.222222H97.7172V16.4444H94.5034V9.28889H86.8139V16.4444H83.6001Z" fill="currentColor"/>
  <path d="M99.0903 16.4444L105.517 0.222222H109.005L115.524 16.4444H112.083L110.73 12.7111H103.774L102.42 16.4444H99.0903ZM104.69 10.1333H109.811L108.32 6.13333C107.288 3.17778 107.265 2.64444 107.265 2.64444H107.219C107.219 2.64444 107.219 3.17778 106.187 6.13333L104.69 10.1333Z" fill="currentColor"/>
  <path d="M116.892 16.4444V0.222222H124.948C131.056 0.222222 131.105 2.15556 131.105 4.95556C131.105 7.46667 129.269 8.66667 127.134 8.95556V9.02222C128.511 9.35556 129.131 10.0889 129.705 11.5333C130.439 13.3556 130.554 15.5333 131.495 16.3111V16.4444H127.823C127.043 15.6889 126.859 13.3111 126.446 11.8667C126.033 10.3778 125.138 10.2 123.462 10.2H120.525V16.4444H116.892ZM120.525 7.62222H125.023C126.905 7.62222 127.777 6.55556 127.777 5.17778C127.777 3.66667 126.698 2.8 125.023 2.8H120.525V7.62222Z" fill="currentColor"/>
  <path d="M136.223 16.4444L130.071 0.222222H133.514C133.514 0.222222 136.841 9.31111 137.185 10.4222C137.736 12.2 137.989 13.1111 137.989 13.1111H138.035C138.012 13.1111 138.265 12.2 138.838 10.4222C139.206 9.31111 142.396 0.222222 142.396 0.222222H145.724L139.802 16.4444H136.223Z" fill="currentColor"/>
  <path d="M147.039 16.4444V0.222222H158.491V2.8H150.252V6.66667H157.687V9.24444H150.252V13.8H158.605V16.4444H147.039Z" fill="currentColor"/>
  <path d="M166.602 16.6667C122.327 16.6667 159.756 14.4222 159.756 11.0889H163.431C163.385 12.9778 164.671 14.0222 166.602 14.0222C168.646 14.0222 169.608 13.2444 169.608 12.0889C169.608 10.9333 168.783 10.4444 165.844 9.66667C163.159 8.95556 160.22 8.11111 160.22 4.77778C160.22 2.13333 162.607 0 166.372 0C170.251 0 172.731 2.11111 172.731 5.08889H169.172C169.149 3.51111 168.047 2.64444 166.372 2.64444C164.742 2.64444 163.664 3.44444 163.664 4.51111C163.664 5.77778 164.559 6.17778 166.9 6.82222C170.366 7.75556 173.167 8.13333 173.167 11.7556C173.167 14.6667 170.435 16.6667 166.602 16.6667Z" fill="currentColor"/>
  <path d="M178.411 16.4444V2.86667H173.342V0.222222H186.678V2.86667H181.632V16.4444H178.411Z" fill="currentColor"/>
</symbol>
</svg>