<svg xmlns="http://www.w3.org/2000/svg" style="display: none;">
  
  <symbol id="icon-close" viewBox="0 0 40 40">
    <path d="M30 10L10 30" stroke="currentColor" stroke-width="4" stroke-linecap="round" stroke-linejoin="round"/>
    <path d="M10 10L30 30" stroke="currentColor" stroke-width="4" stroke-linecap="round" stroke-linejoin="round"/>
  </symbol>

  <symbol id="icon-green-harvest" viewBox="0 0 146 12">
    <path d="M6.30096 12C2.5132 12 0 9.648 0 5.984C0 2.4 2.4773 0 6.2112 0C9.35271 0 11.5607 1.648 11.8839 4.128H9.2809C9.02958 2.704 7.82683 1.904 6.2112 1.904C3.94932 1.904 2.60296 3.536 2.60296 5.984C2.60296 8.672 4.11088 10.096 6.30096 10.096C8.20381 10.096 9.42451 9.136 9.55017 7.696V7.536H6.04964V5.744H11.9736V7.216C11.8659 10.08 9.60403 12 6.30096 12Z" fill="currentColor"/>
    <path d="M13.543 11.84V0.16H19.8439C23.0572 0.16 24.3318 1.552 24.3318 3.568C24.3318 5.376 22.8957 6.24 21.2262 6.448V6.496C22.3033 6.736 22.788 7.264 23.2368 8.304C23.8112 9.616 23.901 11.184 24.637 11.744V11.84H21.7647C21.1544 11.296 21.0108 9.584 20.6876 8.544C20.3645 7.472 19.6644 7.344 18.354 7.344H16.0562V11.84H13.543ZM16.0562 5.488H19.5747C21.0467 5.488 21.7288 4.72 21.7288 3.728C21.7288 2.64 20.8851 2.016 19.5747 2.016H16.0562V5.488Z" fill="currentColor"/>
    <path d="M26.001 11.84V0.16H34.9588V2.016H28.5142V4.8H34.3305V6.656H28.5142V9.936H35.0485V11.84H26.001Z" fill="currentColor"/>
    <path d="M36.7936 11.84V0.16H45.7514V2.016H39.3068V4.8H45.1231V6.656H39.3068V9.936H45.8411V11.84H36.7936Z" fill="currentColor"/>
    <path d="M47.5862 11.84V0.16H50.638L54.9822 6.608C56.3106 8.56 56.4722 9.2 56.4722 9.2H56.526L56.4901 0.16H59.0033V11.84H55.9336L51.4278 5.2C50.4046 3.696 50.1353 2.784 50.1353 2.784H50.0994V11.84H47.5862Z" fill="currentColor"/>
    <path d="M60.894 11.84V9.472H63.5149V11.84H60.894Z" fill="currentColor"/>
    <path d="M65.4023 11.84V0.16H67.9155V4.832H73.9293V0.16H76.4425V11.84H73.9293V6.688H67.9155V11.84H65.4023Z" fill="currentColor"/>
    <path d="M77.5166 11.84L82.543 0.16H85.2716L90.3699 11.84H87.6771L86.618 9.152H81.1787L80.1196 11.84H77.5166ZM81.8968 7.296H85.8999L84.7331 4.416C83.9253 2.288 83.9073 1.904 83.9073 1.904H83.8714C83.8714 1.904 83.8714 2.288 83.0636 4.416L81.8968 7.296Z" fill="currentColor"/>
    <path d="M91.4403 11.84V0.16H97.7413C100.955 0.16 102.229 1.552 102.229 3.568C102.229 5.376 100.793 6.24 99.1236 6.448V6.496C100.201 6.736 100.685 7.264 101.134 8.304C101.709 9.616 101.798 11.184 102.534 11.744V11.84H99.6621C99.0518 11.296 98.9081 9.584 98.585 8.544C98.2619 7.472 97.5618 7.344 96.2513 7.344H93.9536V11.84H91.4403ZM93.9536 5.488H97.472C98.9441 5.488 99.6262 4.72 99.6262 3.728C99.6262 2.64 98.7825 2.016 97.472 2.016H93.9536V5.488Z" fill="currentColor"/>
    <path d="M106.563 11.84L101.752 0.16H104.445C104.445 0.16 107.048 6.704 107.317 7.504C107.748 8.784 107.945 9.44 107.945 9.44H107.981C107.963 9.44 108.161 8.784 108.609 7.504C108.897 6.704 111.392 0.16 111.392 0.16H113.995L109.363 11.84H106.563Z" fill="currentColor"/>
    <path d="M115.024 11.84V0.16H123.982V2.016H117.537V4.8H123.354V6.656H117.537V9.936H124.072V11.84H115.024Z" fill="currentColor"/>
    <path d="M130.311 12C126.972 12 124.961 10.384 124.961 7.984H127.834C127.798 9.344 128.803 10.096 130.311 10.096C131.909 10.096 132.662 9.536 132.662 8.704C132.662 7.872 132.016 7.52 129.718 6.96C127.618 6.448 125.32 5.84 125.32 3.44C125.32 1.536 127.187 0 130.131 0C133.165 0 135.104 1.52 135.104 3.664H132.321C132.303 2.528 131.442 1.904 130.131 1.904C128.857 1.904 128.013 2.48 128.013 3.248C128.013 4.16 128.713 4.448 130.544 4.912C133.255 5.584 135.445 5.856 135.445 8.464C135.445 10.56 133.309 12 130.311 12Z" fill="currentColor"/>
    <path d="M139.537 11.84V2.064H135.57V0.16H146V2.064H142.051V11.84H139.537Z" fill="currentColor"/>
  </symbol>

  <symbol id="icon-hamburger" viewBox="0 0 25 19">
    <path d="M1.5 1.5H22.8333M1.5 9.5H12.1667M1.5 17.5H22.8333" stroke="currentColor" stroke-width="3" stroke-linecap="round" stroke-linejoin="round"/>
  </symbol>

  <symbol id="icon-panel" viewBox="0 0 16 16">
    <path d="M14.5411 0.113955H12.5364C11.9178 0.113955 11.4163 0.605378 11.4163 1.21162V3.17626C11.4163 3.7825 11.9178 4.27395 12.5364 4.27395H14.5411C15.1597 4.27395 15.6612 3.7825 15.6612 3.17626V1.21162C15.6612 0.605378 15.1597 0.113955 14.5411 0.113955Z" fill="currentColor"/>
    <path d="M3.36519 11.477H1.20624C0.540049 11.477 0 11.9685 0 12.5747V14.5394C0 15.1456 0.540049 15.637 1.20624 15.637H3.36519C4.03138 15.637 4.57143 15.1456 4.57143 14.5394V12.5747C4.57143 11.9685 4.03138 11.477 3.36519 11.477Z" fill="currentColor"/>
    <path d="M3.1248 5.74794H1.12007C0.501486 5.74794 0 6.23936 0 6.8456V8.81024C0 9.41648 0.501599 9.90794 1.12018 9.90794H3.1248C3.74341 9.90794 4.2449 9.41648 4.2449 8.81024V6.8456C4.2449 6.23936 3.74341 5.74794 3.1248 5.74794Z" fill="currentColor"/>
    <path d="M8.88295 11.4461H6.87822C6.25964 11.4461 5.75815 11.9375 5.75815 12.5438L5.75804 14.5084C5.75804 15.1147 6.25975 15.6061 6.87833 15.6061H8.88295C9.50157 15.6061 10.0031 15.1147 10.0031 14.5084V12.5438C10.0031 11.9375 9.50157 11.4461 8.88295 11.4461Z" fill="currentColor"/>
    <path d="M3.1248 0.000167359H1.12007C0.501486 0.000167359 0 0.49159 0 1.09783V3.06247C0 3.66871 0.501599 4.16017 1.12018 4.16017H3.1248C3.74341 4.16017 4.2449 3.66871 4.2449 3.06247V1.09783C4.2449 0.491591 3.74341 0.000167359 3.1248 0.000167359Z" fill="currentColor"/>
    <path d="M9.03794 5.80577H7.03321C6.41463 5.80577 5.91314 6.29719 5.91314 6.90343V8.86807C5.91314 9.47431 6.41474 9.96576 7.03332 9.96576H9.03794C9.65655 9.96576 10.158 9.47431 10.158 8.86807V6.90343C10.158 6.29719 9.65655 5.80577 9.03794 5.80577Z" fill="currentColor"/>
    <path d="M14.6667 11.4461H12.6619C12.0434 11.4461 11.5419 11.9375 11.5419 12.5438V14.5084C11.5419 15.1147 12.0435 15.6061 12.662 15.6061H14.6667C15.2853 15.6061 15.7868 15.1147 15.7868 14.5084V12.5438C15.7868 11.9375 15.2853 11.4461 14.6667 11.4461Z" fill="currentColor"/>
    <path d="M8.7953 0.0688848H6.79056C6.17198 0.0688848 5.6705 0.560308 5.6705 1.16655V3.13119C5.6705 3.73743 6.1721 4.22888 6.79068 4.22888H8.7953C9.41391 4.22888 9.91539 3.73706 9.91539 3.13082V1.16655C9.91539 0.560308 9.41391 0.0688848 8.7953 0.0688848Z" fill="currentColor"/>
    <path d="M14.5219 5.91994H12.5171C11.8985 5.91994 11.3971 6.41137 11.3971 7.0176V8.98224C11.3971 9.58848 11.8987 10.0799 12.5172 10.0799H14.5219C15.1405 10.0799 15.642 9.58848 15.642 8.98224V7.0176C15.642 6.41137 15.1405 5.91994 14.5219 5.91994Z" fill="currentColor"/>
  </symbol>
</svg>